<?xml version="1.0" encoding="UTF-8" standalone="no"?>
<!-- Created with Inkscape (http://www.inkscape.org/) -->

<svg
   width="113.96971mm"
   height="113.96971mm"
   viewBox="0 0 113.96971 113.96971"
   version="1.1"
   id="svg1"
   xml:space="preserve"
   xmlns="http://www.w3.org/2000/svg"
   xmlns:svg="http://www.w3.org/2000/svg"><defs
     id="defs1" /><g
     id="layer1"
     transform="translate(-32.444308,-79.540127)"><circle
       style="fill:#225500;fill-opacity:0.438725;stroke-width:2;stroke-linecap:round;stroke-linejoin:round"
       id="circle1"
       cx="89.429169"
       cy="136.52499"
       r="56.984859" /><circle
       style="fill:#225500;fill-opacity:1;stroke-width:2;stroke-linecap:round;stroke-linejoin:round"
       id="path1"
       cx="89.429169"
       cy="136.52499"
       r="28.67305" /><g
       style="fill:#ffffff"
       id="g1"
       transform="matrix(0.00661458,0,0,0.00661458,86.254168,139.83229)"><path
         d="m -989.96922,1827.4513 q -104.12278,0 -174.55888,-70.436 -70.436,-70.4361 -70.436,-174.5588 V 1080.217 Q -1345.2118,957.71953 -1412.5854,807.66016 -1479.959,657.6008 -1479.959,479.97952 V -1847.4718 q 0,-508.3643 471.6152,-744.1719 471.6151,-235.8075 1488.3438,-235.8075 1053.478,0 1506.7185,226.6202 453.2404,226.6203 453.2404,753.3592 V 479.97952 q 0,177.62128 -67.3736,327.68064 -67.3736,150.05937 -177.6212,272.55684 v 502.2395 q 0,104.1227 -70.436,174.5588 -70.436,70.436 -174.5588,70.436 h -244.995 q -104.1227,0 -174.5588,-70.436 -70.436,-70.4361 -70.436,-174.5588 V 1337.4616 H -499.97947 v 244.9949 q 0,104.1227 -70.43603,174.5588 -70.43603,70.436 -174.55886,70.436 z m 0,-2694.94357 H 1949.9693 V -1602.4768 H -989.96922 Z m 612.48717,1469.96922 q 153.1218,0 260.30706,-107.18524 107.1852541,-107.18526 107.1852541,-260.30706 0,-153.121794 -107.1852541,-260.307045 -107.18526,-107.185255 -260.30706,-107.185255 -153.12179,0 -260.30705,107.185255 -107.18526,107.185251 -107.18526,260.307045 0,153.1218 107.18526,260.30706 107.18526,107.18524 260.30705,107.18524 z m 1714.96405,0 q 153.1218,0 260.3071,-107.18524 107.1852,-107.18526 107.1852,-260.30706 0,-153.121794 -107.1852,-260.307045 -107.1853,-107.185255 -260.3071,-107.185255 -153.1217,0 -260.307,107.185255 -107.18525,107.185251 -107.18525,260.307045 0,153.1218 107.18525,260.30706 107.1853,107.18524 260.307,107.18524 z"
         id="path1-8"
         style="stroke-width:1" /></g></g></svg>
