<?xml version="1.0" encoding="UTF-8" standalone="no"?>
<!-- Created with Inkscape (http://www.inkscape.org/) -->

<svg
   width="56.336277mm"
   height="66.077492mm"
   viewBox="0 0 56.336277 66.077492"
   version="1.1"
   id="svg1"
   xmlns="http://www.w3.org/2000/svg"
   xmlns:svg="http://www.w3.org/2000/svg">
  <defs
     id="defs1">
    <filter
       style="color-interpolation-filters:sRGB"
       id="filter8"
       x="-0.24469142"
       y="-0.20728908"
       width="1.5450009"
       height="1.4616627">
      <feFlood
         result="flood"
         in="SourceGraphic"
         flood-opacity="0.498039"
         flood-color="rgb(0,0,0)"
         id="feFlood7" />
      <feGaussianBlur
         result="blur"
         in="SourceGraphic"
         stdDeviation="5.000000"
         id="feGaussianBlur7" />
      <feOffset
         result="offset"
         in="blur"
         dx="3.000000"
         dy="3.000000"
         id="feOffset7" />
      <feComposite
         result="comp1"
         operator="in"
         in="flood"
         in2="offset"
         id="feComposite7" />
      <feComposite
         result="comp2"
         operator="over"
         in="SourceGraphic"
         in2="comp1"
         id="feComposite8" />
    </filter>
  </defs>
  <g
     id="layer1"
     transform="translate(-59.853342,-109.76289)">
    <g
       id="g7"
       style="filter:url(#filter8)">
      <g
         id="g2">
        <path
           style="fill:#ea1717;fill-opacity:1;stroke:none;stroke-width:0.653215;stroke-linecap:round"
           d="m 88.021093,113.09418 v 48.60988 l -24.837375,10.80547 z"
           id="path1" />
        <path
           style="fill:#ef6d41;fill-opacity:1;stroke:none;stroke-width:0.653215;stroke-linecap:round"
           d="m 88.021093,113.09418 v 48.60988 l 24.837367,10.80547 z"
           id="path2" />
      </g>
      <path
         style="baseline-shift:baseline;display:inline;overflow:visible;opacity:1;fill:#ffffff;stroke:#000000;stroke-width:2.4;stroke-linecap:round;stroke-linejoin:round;stroke-dasharray:none;stroke-opacity:1;paint-order:stroke fill markers;enable-background:accumulate;stop-color:#000000;stop-opacity:1"
         d="m 88.021484,110.96289 a 2.1322132,2.1322132 0 0 0 -1.966797,1.30859 l -24.83789,59.41602 a 2.1322132,2.1322132 0 0 0 2.818359,2.77734 l 23.986328,-10.43554 23.986326,10.43554 a 2.1322132,2.1322132 0 0 0 2.81836,-2.77734 L 89.988281,112.27148 a 2.1322132,2.1322132 0 0 0 -1.966797,-1.30859 z m 0,7.6582 L 108.8457,168.43945 88.871094,159.75 a 2.1322132,2.1322132 0 0 0 -1.701172,0 l -19.97461,8.68945 z"
         id="path3" />
    </g>
  </g>
</svg>
