<?xml version="1.0" encoding="UTF-8" standalone="no"?>
<!-- Created with Inkscape (http://www.inkscape.org/) -->

<svg
   width="47.299042mm"
   height="59.127167mm"
   viewBox="0 0 47.299042 59.127167"
   version="1.1"
   id="svg1"
   xml:space="preserve"
   xmlns:inkscape="http://www.inkscape.org/namespaces/inkscape"
   xmlns:sodipodi="http://sodipodi.sourceforge.net/DTD/sodipodi-0.dtd"
   xmlns="http://www.w3.org/2000/svg"
   xmlns:svg="http://www.w3.org/2000/svg"><sodipodi:namedview
     id="namedview1"
     pagecolor="#ffffff"
     bordercolor="#000000"
     borderopacity="0.25"
     inkscape:showpageshadow="2"
     inkscape:pageopacity="0.0"
     inkscape:pagecheckerboard="0"
     inkscape:deskcolor="#d1d1d1"
     inkscape:document-units="mm"><inkscape:page
       x="0"
       y="0"
       width="47.299042"
       height="59.127167"
       id="page2"
       margin="0"
       bleed="0" /></sodipodi:namedview><defs
     id="defs1"><rect
       x="306.56183"
       y="379.29703"
       width="104.46533"
       height="37.587994"
       id="rect2" /></defs><g
     inkscape:label="Layer 1"
     inkscape:groupmode="layer"
     id="layer1"
     transform="translate(-71.332018,-73.341196)"><path
       id="path1"
       style="fill:#ffffff;fill-opacity:1;stroke:#000000;stroke-width:2;stroke-linecap:round;stroke-linejoin:round;stroke-dasharray:none;stroke-opacity:1;paint-order:normal"
       d="m 94.981799,74.341199 a 22.649446,22.649446 0 0 0 -22.64978,22.64978 22.649446,22.649446 0 0 0 15.065747,21.341851 l 7.584033,13.13563 7.583521,-13.13563 A 22.649446,22.649446 0 0 0 117.63106,96.990979 22.649446,22.649446 0 0 0 94.981799,74.341199 Z" /><text
       xml:space="preserve"
       transform="matrix(0.26458333,0,0,0.26458333,0.40953548,2.6458334)"
       id="text2"
       style="font-size:32px;font-family:Calibri;-inkscape-font-specification:Calibri;text-align:start;writing-mode:lr-tb;direction:ltr;white-space:pre;shape-inside:url(#rect2);fill:none;stroke:#000000;stroke-width:7.55906;stroke-linecap:round;stroke-linejoin:round;stroke-dasharray:none;stroke-opacity:1;paint-order:stroke fill markers"><tspan
         x="306.5625"
         y="408.12102"
         id="tspan3"><tspan
           style="font-weight:bold;font-family:Arial;-inkscape-font-specification:'Arial Bold';fill:#000000;stroke:none"
           id="tspan1">13 min</tspan></tspan></text><g
       style="fill:#000000;stroke-width:0.268146"
       id="g2"
       transform="matrix(0.02466787,0,0,0.02466787,82.647604,102.88332)"><path
         d="m 280,-40 112,-564 -72,28 v 136 h -80 v -188 l 202,-86 q 14,-6 29.5,-7 15.5,-1 29.5,4 14,5 26.5,14 12.5,9 20.5,23 l 40,64 q 26,42 70.5,69 44.5,27 101.5,27 v 80 q -70,0 -125,-29 -55,-29 -94,-74 l -25,123 84,80 v 300 h -80 v -260 l -84,-64 -72,324 z m 260,-700 q -33,0 -56.5,-23.5 Q 460,-787 460,-820 q 0,-33 23.5,-56.5 23.5,-23.5 56.5,-23.5 33,0 56.5,23.5 23.5,23.5 23.5,56.5 0,33 -23.5,56.5 Q 573,-740 540,-740 Z"
         id="path1-8"
         style="stroke-width:0.268146" /></g></g></svg>
